<?xml version="1.0" encoding="utf-8"?>
<!-- Generator: Adobe Illustrator 19.2.1, SVG Export Plug-In . SVG Version: 6.00 Build 0)  -->
<svg version="1.1" id="Layer_1" xmlns="http://www.w3.org/2000/svg" xmlns:xlink="http://www.w3.org/1999/xlink" x="0px" y="0px"
	 width="228.9px" height="66.8px" viewBox="0 0 228.9 66.8" enable-background="new 0 0 228.9 66.8" xml:space="preserve">
<g>
	<path fill="#FFFFFF" d="M34.1,57.7V30.9c-3.9-2.6-7.9-3.8-12-3.8c-4.7,0-8.6,1.6-11.7,4.7C7.3,35,5.8,39,5.8,43.9
		c0,5,1.6,9.2,4.9,12.5c3.3,3.3,7.4,5,12.3,5C26.8,61.4,30.5,60.2,34.1,57.7z M38.5,1.1v63.8h-4.4v-3.2c-3.8,2.7-7.8,4-12.2,4
		c-5.8,0-10.8-2.1-14.8-6.2c-4-4.2-6-9.3-6-15.3C1.1,38.1,3,33,7,28.9c3.9-4.1,8.9-6.1,14.9-6.1c3.8,0,7.9,1.1,12.2,3.3v-25H38.5z"
		/>
	<path fill="#FFFFFF" d="M52.9,39.1h26.8c-1.6-8-5.9-12.1-13.1-12.1c-3.4,0-6.3,1-8.8,3.2C55.4,32.3,53.7,35.3,52.9,39.1z
		 M84.9,42.7H52.3c-0.1,0.7-0.1,1.5-0.1,2.2c0,4.6,1.7,8.5,5,11.8c3.3,3.2,7.2,4.8,11.7,4.8c5.2,0,10.4-2,15.4-6.1v5
		c-4.7,3.6-10,5.5-15.9,5.5c-6,0-10.9-2.1-14.8-6.2c-3.9-4.1-5.9-9.4-5.9-15.8c0-6,1.8-11.1,5.4-15c3.6-4,8.1-6,13.6-6
		c5.1,0,9.4,1.8,13,5.4C83.2,31.7,84.9,36.5,84.9,42.7z"/>
	<path fill="#FFFFFF" d="M117.2,26.2V31c-4.2-2.8-7.9-4.2-11.3-4.2c-2.5,0-4.6,0.7-6.3,2c-1.7,1.4-2.5,3-2.5,5
		c0,1.4,0.5,2.7,1.6,3.9c1,1.2,3.9,2.7,8.6,4.5c4.7,1.8,7.7,3.7,9.2,5.6c1.4,2,2.2,4.1,2.2,6.5c0,3.2-1.3,5.9-3.9,8.1
		c-2.6,2.2-5.8,3.3-9.6,3.3c-4.1,0-8.3-1.3-12.4-3.7v-4.3c4.9,2.5,9.2,3.7,12.9,3.7c2.6,0,4.6-0.7,6.3-2c1.6-1.3,2.4-3.1,2.4-5.2
		c0-1.4-0.5-2.8-1.6-4c-1.1-1.2-3.9-2.7-8.6-4.6c-4.7-1.8-7.7-3.7-9.1-5.5c-1.4-1.8-2.1-3.8-2.1-6c0-3.1,1.3-5.8,3.9-8
		c2.6-2.2,5.7-3.3,9.4-3.3C109.6,22.8,113.3,23.9,117.2,26.2z"/>
	<rect x="127" y="1.1" fill="#FFFFFF" width="4.4" height="8.7"/>
	<rect x="127" y="23.6" fill="#FFFFFF" width="4.4" height="41.2"/>
	<path fill="#FFFFFF" d="M146.6,23.6v7.1h0.2c3.4-5.3,8-8,13.6-8c4.7,0,8.4,1.5,11.2,4.5c2.8,3,4.2,7.1,4.2,12.4v25.2h-4.4V41.4
		c0-9.5-3.7-14.3-11.2-14.3c-5.5,0-10,2.9-13.5,8.8v29h-4.4V23.6H146.6z"/>
	<path fill="#FFFFFF" d="M206.2,61.4c4.7,0,8.7-1.6,11.9-4.9c3.2-3.3,4.8-7.3,4.8-12.2c0-4.9-1.6-9-4.8-12.3
		c-3.2-3.3-7.2-4.9-11.9-4.9c-4.8,0-8.8,1.6-12,4.9c-3.2,3.3-4.8,7.4-4.8,12.3c0,4.9,1.6,9,4.8,12.2
		C197.4,59.8,201.4,61.4,206.2,61.4z M206.2,22.8c6.1,0,11.2,2.1,15.3,6.2c4.1,4.1,6.1,9.2,6.1,15.4c0,6.1-2,11.2-6.1,15.3
		c-4.1,4.1-9.2,6.1-15.3,6.1c-6.1,0-11.2-2-15.4-6.1c-4.1-4.1-6.2-9.2-6.2-15.3c0-6.1,2.1-11.3,6.2-15.4
		C195,24.8,200.1,22.8,206.2,22.8z"/>
</g>
</svg>
